<svg width="337" height="118" viewBox="0 0 337 118" fill="none" xmlns="http://www.w3.org/2000/svg">
<path d="M8.875 0.875V86.875H56.375V94.1875H0.4375V0.875H8.875ZM98.4375 28.625C106.979 28.625 113.771 32 118.812 38.75C123.312 44.7917 125.562 52.5208 125.562 61.9375C125.562 72.8542 122.667 81.4375 116.875 87.6875C111.958 93.0625 105.771 95.75 98.3125 95.75C89.6458 95.75 82.8125 92.3333 77.8125 85.5C73.3958 79.5 71.1875 71.7708 71.1875 62.3125C71.1875 51.3958 74.0625 42.8333 79.8125 36.625C84.7292 31.2917 90.9375 28.625 98.4375 28.625ZM98.4375 35.125C92.1042 35.125 87.25 37.7917 83.875 43.125C80.875 47.8333 79.375 54.1458 79.375 62.0625C79.375 71.2292 81.2917 78.2292 85.125 83.0625C88.4583 87.1875 92.8542 89.25 98.3125 89.25C104.604 89.25 109.458 86.5625 112.875 81.1875C115.875 76.4375 117.375 70.0625 117.375 62.0625C117.375 53.0208 115.458 46.1042 111.625 41.3125C108.292 37.1875 103.896 35.125 98.4375 35.125ZM199 22.375L198.375 29.6875C194.958 29.6875 192.188 30.1458 190.062 31.0625C188.354 31.8125 186.604 33.0625 184.812 34.8125C189.312 38.4375 191.562 43.4167 191.562 49.75C191.562 56.625 189.062 62.0208 184.062 65.9375C179.854 69.2292 174.542 70.875 168.125 70.875C164.292 70.875 160.75 70.2083 157.5 68.875C153.25 71.25 151.125 73.7917 151.125 76.5C151.125 78.7917 152.042 80.3542 153.875 81.1875C155.667 81.9792 159.271 82.6458 164.688 83.1875L177.25 84.4375C185.917 85.3542 191.917 87.2917 195.25 90.25C197.75 92.4583 199 95.5625 199 99.5625C199 105.188 196.167 109.625 190.5 112.875C185.167 115.875 178.021 117.375 169.062 117.375C159.521 117.375 152.229 115.75 147.188 112.5C142.896 109.708 140.75 106.083 140.75 101.625C140.75 98.4167 142.062 95.5417 144.688 93C146.938 90.7917 149.979 89.0625 153.812 87.8125C147.312 86.3958 144.062 83.2708 144.062 78.4375C144.062 74.2292 147.021 70.1042 152.938 66.0625C147.562 62.1875 144.875 56.7917 144.875 49.875C144.875 43.125 147.458 37.7292 152.625 33.6875C156.917 30.3125 162.125 28.625 168.25 28.625C173.042 28.625 177.146 29.6042 180.562 31.5625C183.021 28.1042 185.792 25.6667 188.875 24.25C191.625 23 195 22.375 199 22.375ZM168.25 34.25C163.458 34.25 159.562 35.7917 156.562 38.875C153.812 41.7083 152.438 45.375 152.438 49.875C152.438 54.9167 154.167 58.875 157.625 61.75C160.458 64.0833 163.979 65.25 168.188 65.25C173.021 65.25 176.917 63.7292 179.875 60.6875C182.625 57.8958 184 54.2917 184 49.875C184 44.7083 182.25 40.6875 178.75 37.8125C175.917 35.4375 172.417 34.25 168.25 34.25ZM160.562 89.3125C152.229 91.6042 148.062 95.375 148.062 100.625C148.062 104.5 150.292 107.417 154.75 109.375C158.417 110.958 163.271 111.75 169.312 111.75C176.896 111.75 182.708 110.521 186.75 108.062C190.042 106.021 191.688 103.458 191.688 100.375C191.688 97.5417 190.479 95.4167 188.062 94C185.562 92.5417 181.312 91.5 175.312 90.875L160.562 89.3125ZM261.75 30.1875V94.1875H253.812V30.1875H261.75ZM263.625 4.4375V16.375H251.875V4.4375H263.625ZM295.125 30.1875V42.0625C302.292 33.1042 310.083 28.625 318.5 28.625C324.292 28.625 328.812 30.4375 332.062 34.0625C334.979 37.2708 336.438 41.4792 336.438 46.6875V94.1875H328.375V50C328.375 40.5417 324.417 35.8125 316.5 35.8125C309.083 35.8125 302.042 40.25 295.375 49.125V94.1875H287.438V30.1875H295.125Z" fill="black"/>
<path d="M8.875 0.875V86.875H56.375V94.1875H0.4375V0.875H8.875ZM98.4375 28.625C106.979 28.625 113.771 32 118.812 38.75C123.312 44.7917 125.562 52.5208 125.562 61.9375C125.562 72.8542 122.667 81.4375 116.875 87.6875C111.958 93.0625 105.771 95.75 98.3125 95.75C89.6458 95.75 82.8125 92.3333 77.8125 85.5C73.3958 79.5 71.1875 71.7708 71.1875 62.3125C71.1875 51.3958 74.0625 42.8333 79.8125 36.625C84.7292 31.2917 90.9375 28.625 98.4375 28.625ZM98.4375 35.125C92.1042 35.125 87.25 37.7917 83.875 43.125C80.875 47.8333 79.375 54.1458 79.375 62.0625C79.375 71.2292 81.2917 78.2292 85.125 83.0625C88.4583 87.1875 92.8542 89.25 98.3125 89.25C104.604 89.25 109.458 86.5625 112.875 81.1875C115.875 76.4375 117.375 70.0625 117.375 62.0625C117.375 53.0208 115.458 46.1042 111.625 41.3125C108.292 37.1875 103.896 35.125 98.4375 35.125ZM199 22.375L198.375 29.6875C194.958 29.6875 192.188 30.1458 190.062 31.0625C188.354 31.8125 186.604 33.0625 184.812 34.8125C189.312 38.4375 191.562 43.4167 191.562 49.75C191.562 56.625 189.062 62.0208 184.062 65.9375C179.854 69.2292 174.542 70.875 168.125 70.875C164.292 70.875 160.75 70.2083 157.5 68.875C153.25 71.25 151.125 73.7917 151.125 76.5C151.125 78.7917 152.042 80.3542 153.875 81.1875C155.667 81.9792 159.271 82.6458 164.688 83.1875L177.25 84.4375C185.917 85.3542 191.917 87.2917 195.25 90.25C197.75 92.4583 199 95.5625 199 99.5625C199 105.188 196.167 109.625 190.5 112.875C185.167 115.875 178.021 117.375 169.062 117.375C159.521 117.375 152.229 115.75 147.188 112.5C142.896 109.708 140.75 106.083 140.75 101.625C140.75 98.4167 142.062 95.5417 144.688 93C146.938 90.7917 149.979 89.0625 153.812 87.8125C147.312 86.3958 144.062 83.2708 144.062 78.4375C144.062 74.2292 147.021 70.1042 152.938 66.0625C147.562 62.1875 144.875 56.7917 144.875 49.875C144.875 43.125 147.458 37.7292 152.625 33.6875C156.917 30.3125 162.125 28.625 168.25 28.625C173.042 28.625 177.146 29.6042 180.562 31.5625C183.021 28.1042 185.792 25.6667 188.875 24.25C191.625 23 195 22.375 199 22.375ZM168.25 34.25C163.458 34.25 159.562 35.7917 156.562 38.875C153.812 41.7083 152.438 45.375 152.438 49.875C152.438 54.9167 154.167 58.875 157.625 61.75C160.458 64.0833 163.979 65.25 168.188 65.25C173.021 65.25 176.917 63.7292 179.875 60.6875C182.625 57.8958 184 54.2917 184 49.875C184 44.7083 182.25 40.6875 178.75 37.8125C175.917 35.4375 172.417 34.25 168.25 34.25ZM160.562 89.3125C152.229 91.6042 148.062 95.375 148.062 100.625C148.062 104.5 150.292 107.417 154.75 109.375C158.417 110.958 163.271 111.75 169.312 111.75C176.896 111.75 182.708 110.521 186.75 108.062C190.042 106.021 191.688 103.458 191.688 100.375C191.688 97.5417 190.479 95.4167 188.062 94C185.562 92.5417 181.312 91.5 175.312 90.875L160.562 89.3125ZM261.75 30.1875V94.1875H253.812V30.1875H261.75ZM263.625 4.4375V16.375H251.875V4.4375H263.625ZM295.125 30.1875V42.0625C302.292 33.1042 310.083 28.625 318.5 28.625C324.292 28.625 328.812 30.4375 332.062 34.0625C334.979 37.2708 336.438 41.4792 336.438 46.6875V94.1875H328.375V50C328.375 40.5417 324.417 35.8125 316.5 35.8125C309.083 35.8125 302.042 40.25 295.375 49.125V94.1875H287.438V30.1875H295.125Z" fill="black" fill-opacity="0.2"/>
<path d="M-14 113.062H348.875V119.562H-14V113.062Z" fill="black"/>
<path d="M-14 113.062H348.875V119.562H-14V113.062Z" fill="black" fill-opacity="0.2"/>
</svg>
