<svg width="428" height="119" viewBox="0 0 428 119" fill="none" xmlns="http://www.w3.org/2000/svg">
<path d="M62.75 21.8125L54.3125 24.5C50.7708 13.0833 43.6042 7.375 32.8125 7.375C26.1042 7.375 20.9167 9.08333 17.25 12.5C14.0417 15.4583 12.4375 19.2917 12.4375 24C12.4375 29.5833 14.1875 33.8125 17.6875 36.6875C20.7292 39.1042 25.8125 41.1875 32.9375 42.9375L36.6875 44C48.2292 46.9167 56.0208 50.7708 60.0625 55.5625C63.2292 59.2708 64.8125 64.4167 64.8125 71C64.8125 79.4167 61.6875 85.9792 55.4375 90.6875C49.8542 94.8958 42.4792 97 33.3125 97C24.4792 97 17.1458 94.7708 11.3125 90.3125C6.1875 86.3542 2.52083 80.8958 0.3125 73.9375L8.75 70.75C12.125 83.5417 20.2708 89.9375 33.1875 89.9375C41.2708 89.9375 47.2917 88.0208 51.25 84.1875C54.4167 81.0625 56 76.9167 56 71.75C56 66 54.3125 61.6875 50.9375 58.8125C47.6875 56.0625 41.9583 53.6458 33.75 51.5625L30.5 50.625C19.9583 47.9167 12.7083 44.2708 8.75 39.6875C5.5 35.8958 3.875 30.7917 3.875 24.375C3.875 17.1667 6.64583 11.2708 12.1875 6.6875C17.4375 2.35417 24.2708 0.1875 32.6875 0.1875C47.6458 0.1875 57.6667 7.39583 62.75 21.8125ZM94.125 31.1875V95.1875H86.1875V31.1875H94.125ZM96 5.4375V17.375H84.25V5.4375H96ZM171.625 23.375L171 30.6875C167.583 30.6875 164.812 31.1458 162.688 32.0625C160.979 32.8125 159.229 34.0625 157.438 35.8125C161.938 39.4375 164.188 44.4167 164.188 50.75C164.188 57.625 161.688 63.0208 156.688 66.9375C152.479 70.2292 147.167 71.875 140.75 71.875C136.917 71.875 133.375 71.2083 130.125 69.875C125.875 72.25 123.75 74.7917 123.75 77.5C123.75 79.7917 124.667 81.3542 126.5 82.1875C128.292 82.9792 131.896 83.6458 137.312 84.1875L149.875 85.4375C158.542 86.3542 164.542 88.2917 167.875 91.25C170.375 93.4583 171.625 96.5625 171.625 100.562C171.625 106.188 168.792 110.625 163.125 113.875C157.792 116.875 150.646 118.375 141.688 118.375C132.146 118.375 124.854 116.75 119.812 113.5C115.521 110.708 113.375 107.083 113.375 102.625C113.375 99.4167 114.688 96.5417 117.312 94C119.562 91.7917 122.604 90.0625 126.438 88.8125C119.938 87.3958 116.688 84.2708 116.688 79.4375C116.688 75.2292 119.646 71.1042 125.562 67.0625C120.188 63.1875 117.5 57.7917 117.5 50.875C117.5 44.125 120.083 38.7292 125.25 34.6875C129.542 31.3125 134.75 29.625 140.875 29.625C145.667 29.625 149.771 30.6042 153.188 32.5625C155.646 29.1042 158.417 26.6667 161.5 25.25C164.25 24 167.625 23.375 171.625 23.375ZM140.875 35.25C136.083 35.25 132.188 36.7917 129.188 39.875C126.438 42.7083 125.062 46.375 125.062 50.875C125.062 55.9167 126.792 59.875 130.25 62.75C133.083 65.0833 136.604 66.25 140.812 66.25C145.646 66.25 149.542 64.7292 152.5 61.6875C155.25 58.8958 156.625 55.2917 156.625 50.875C156.625 45.7083 154.875 41.6875 151.375 38.8125C148.542 36.4375 145.042 35.25 140.875 35.25ZM133.188 90.3125C124.854 92.6042 120.688 96.375 120.688 101.625C120.688 105.5 122.917 108.417 127.375 110.375C131.042 111.958 135.896 112.75 141.938 112.75C149.521 112.75 155.333 111.521 159.375 109.062C162.667 107.021 164.312 104.458 164.312 101.375C164.312 98.5417 163.104 96.4167 160.688 95C158.188 93.5417 153.938 92.5 147.938 91.875L133.188 90.3125ZM197.625 31.1875V43.0625C204.792 34.1042 212.583 29.625 221 29.625C226.792 29.625 231.312 31.4375 234.562 35.0625C237.479 38.2708 238.938 42.4792 238.938 47.6875V95.1875H230.875V51C230.875 41.5417 226.917 36.8125 219 36.8125C211.583 36.8125 204.542 41.25 197.875 50.125V95.1875H189.938V31.1875H197.625ZM349.438 31.1875V95.1875H341.75V83C338.875 87.5417 335.167 91.0417 330.625 93.5C326.708 95.6667 322.667 96.75 318.5 96.75C312.75 96.75 308.229 95.0208 304.938 91.5625C301.854 88.3958 300.312 84.1458 300.312 78.8125V31.1875H308.375V76.375C308.375 85.25 312.458 89.6875 320.625 89.6875C324.583 89.6875 328.604 88.25 332.688 85.375C336.229 82.875 339.167 79.75 341.5 76V31.1875H349.438ZM382.75 31.1875V41.4375C387.792 33.5625 394.354 29.625 402.438 29.625C410.479 29.625 416.833 32.9375 421.5 39.5625C425.708 45.5625 427.812 53.3542 427.812 62.9375C427.812 73.9375 424.979 82.5833 419.312 88.875C414.604 94.125 408.771 96.75 401.812 96.75C393.854 96.75 387.583 92.8542 383 85.0625V118.375H375.062V31.1875H382.75ZM383 49.375V77.5C387.792 85.7917 393.688 89.9375 400.688 89.9375C406.646 89.9375 411.354 87.3125 414.812 82.0625C418.021 77.2708 419.625 70.9167 419.625 63C419.625 54 417.708 47.0833 413.875 42.25C410.667 38.25 406.521 36.25 401.438 36.25C393.854 36.25 387.708 40.625 383 49.375Z" fill="black"/>
<path d="M62.75 21.8125L54.3125 24.5C50.7708 13.0833 43.6042 7.375 32.8125 7.375C26.1042 7.375 20.9167 9.08333 17.25 12.5C14.0417 15.4583 12.4375 19.2917 12.4375 24C12.4375 29.5833 14.1875 33.8125 17.6875 36.6875C20.7292 39.1042 25.8125 41.1875 32.9375 42.9375L36.6875 44C48.2292 46.9167 56.0208 50.7708 60.0625 55.5625C63.2292 59.2708 64.8125 64.4167 64.8125 71C64.8125 79.4167 61.6875 85.9792 55.4375 90.6875C49.8542 94.8958 42.4792 97 33.3125 97C24.4792 97 17.1458 94.7708 11.3125 90.3125C6.1875 86.3542 2.52083 80.8958 0.3125 73.9375L8.75 70.75C12.125 83.5417 20.2708 89.9375 33.1875 89.9375C41.2708 89.9375 47.2917 88.0208 51.25 84.1875C54.4167 81.0625 56 76.9167 56 71.75C56 66 54.3125 61.6875 50.9375 58.8125C47.6875 56.0625 41.9583 53.6458 33.75 51.5625L30.5 50.625C19.9583 47.9167 12.7083 44.2708 8.75 39.6875C5.5 35.8958 3.875 30.7917 3.875 24.375C3.875 17.1667 6.64583 11.2708 12.1875 6.6875C17.4375 2.35417 24.2708 0.1875 32.6875 0.1875C47.6458 0.1875 57.6667 7.39583 62.75 21.8125ZM94.125 31.1875V95.1875H86.1875V31.1875H94.125ZM96 5.4375V17.375H84.25V5.4375H96ZM171.625 23.375L171 30.6875C167.583 30.6875 164.812 31.1458 162.688 32.0625C160.979 32.8125 159.229 34.0625 157.438 35.8125C161.938 39.4375 164.188 44.4167 164.188 50.75C164.188 57.625 161.688 63.0208 156.688 66.9375C152.479 70.2292 147.167 71.875 140.75 71.875C136.917 71.875 133.375 71.2083 130.125 69.875C125.875 72.25 123.75 74.7917 123.75 77.5C123.75 79.7917 124.667 81.3542 126.5 82.1875C128.292 82.9792 131.896 83.6458 137.312 84.1875L149.875 85.4375C158.542 86.3542 164.542 88.2917 167.875 91.25C170.375 93.4583 171.625 96.5625 171.625 100.562C171.625 106.188 168.792 110.625 163.125 113.875C157.792 116.875 150.646 118.375 141.688 118.375C132.146 118.375 124.854 116.75 119.812 113.5C115.521 110.708 113.375 107.083 113.375 102.625C113.375 99.4167 114.688 96.5417 117.312 94C119.562 91.7917 122.604 90.0625 126.438 88.8125C119.938 87.3958 116.688 84.2708 116.688 79.4375C116.688 75.2292 119.646 71.1042 125.562 67.0625C120.188 63.1875 117.5 57.7917 117.5 50.875C117.5 44.125 120.083 38.7292 125.25 34.6875C129.542 31.3125 134.75 29.625 140.875 29.625C145.667 29.625 149.771 30.6042 153.188 32.5625C155.646 29.1042 158.417 26.6667 161.5 25.25C164.25 24 167.625 23.375 171.625 23.375ZM140.875 35.25C136.083 35.25 132.188 36.7917 129.188 39.875C126.438 42.7083 125.062 46.375 125.062 50.875C125.062 55.9167 126.792 59.875 130.25 62.75C133.083 65.0833 136.604 66.25 140.812 66.25C145.646 66.25 149.542 64.7292 152.5 61.6875C155.25 58.8958 156.625 55.2917 156.625 50.875C156.625 45.7083 154.875 41.6875 151.375 38.8125C148.542 36.4375 145.042 35.25 140.875 35.25ZM133.188 90.3125C124.854 92.6042 120.688 96.375 120.688 101.625C120.688 105.5 122.917 108.417 127.375 110.375C131.042 111.958 135.896 112.75 141.938 112.75C149.521 112.75 155.333 111.521 159.375 109.062C162.667 107.021 164.312 104.458 164.312 101.375C164.312 98.5417 163.104 96.4167 160.688 95C158.188 93.5417 153.938 92.5 147.938 91.875L133.188 90.3125ZM197.625 31.1875V43.0625C204.792 34.1042 212.583 29.625 221 29.625C226.792 29.625 231.312 31.4375 234.562 35.0625C237.479 38.2708 238.938 42.4792 238.938 47.6875V95.1875H230.875V51C230.875 41.5417 226.917 36.8125 219 36.8125C211.583 36.8125 204.542 41.25 197.875 50.125V95.1875H189.938V31.1875H197.625ZM349.438 31.1875V95.1875H341.75V83C338.875 87.5417 335.167 91.0417 330.625 93.5C326.708 95.6667 322.667 96.75 318.5 96.75C312.75 96.75 308.229 95.0208 304.938 91.5625C301.854 88.3958 300.312 84.1458 300.312 78.8125V31.1875H308.375V76.375C308.375 85.25 312.458 89.6875 320.625 89.6875C324.583 89.6875 328.604 88.25 332.688 85.375C336.229 82.875 339.167 79.75 341.5 76V31.1875H349.438ZM382.75 31.1875V41.4375C387.792 33.5625 394.354 29.625 402.438 29.625C410.479 29.625 416.833 32.9375 421.5 39.5625C425.708 45.5625 427.812 53.3542 427.812 62.9375C427.812 73.9375 424.979 82.5833 419.312 88.875C414.604 94.125 408.771 96.75 401.812 96.75C393.854 96.75 387.583 92.8542 383 85.0625V118.375H375.062V31.1875H382.75ZM383 49.375V77.5C387.792 85.7917 393.688 89.9375 400.688 89.9375C406.646 89.9375 411.354 87.3125 414.812 82.0625C418.021 77.2708 419.625 70.9167 419.625 63C419.625 54 417.708 47.0833 413.875 42.25C410.667 38.25 406.521 36.25 401.438 36.25C393.854 36.25 387.708 40.625 383 49.375Z" fill="black" fill-opacity="0.2"/>
<path d="M-7 114.062H436.5V120.562H-7V114.062Z" fill="black"/>
<path d="M-7 114.062H436.5V120.562H-7V114.062Z" fill="black" fill-opacity="0.2"/>
</svg>
